<mxfile host="app.diagrams.net" modified="2024-03-20T12:40:39.631Z" agent="Mozilla/5.0 (Windows NT 10.0; Win64; x64) AppleWebKit/537.36 (KHTML, like Gecko) Chrome/121.0.0.0 Safari/537.36 OPR/107.0.0.0 (Edition std-1)" etag="wTrjV1wU10tV9RwaHKHX" version="24.0.7" type="device">
  <diagram name="PÃ¡gina-1" id="7edOTVaBkxIpGCXRuQw6">
    <mxGraphModel dx="1595" dy="873" grid="1" gridSize="10" guides="1" tooltips="1" connect="1" arrows="1" fold="1" page="1" pageScale="1" pageWidth="1169" pageHeight="827" math="0" shadow="0">
      <root>
        <mxCell id="0" />
        <mxCell id="1" parent="0" />
        <mxCell id="tBe84vyKgzNVQJbpqO7j-18" style="edgeStyle=orthogonalEdgeStyle;rounded=0;orthogonalLoop=1;jettySize=auto;html=1;endArrow=none;endFill=0;" edge="1" parent="1" source="tBe84vyKgzNVQJbpqO7j-1" target="tBe84vyKgzNVQJbpqO7j-17">
          <mxGeometry relative="1" as="geometry" />
        </mxCell>
        <mxCell id="tBe84vyKgzNVQJbpqO7j-5" style="edgeStyle=orthogonalEdgeStyle;rounded=0;orthogonalLoop=1;jettySize=auto;html=1;endArrow=none;endFill=0;" edge="1" parent="1" source="tBe84vyKgzNVQJbpqO7j-3" target="tBe84vyKgzNVQJbpqO7j-2">
          <mxGeometry relative="1" as="geometry" />
        </mxCell>
        <mxCell id="tBe84vyKgzNVQJbpqO7j-7" style="edgeStyle=orthogonalEdgeStyle;rounded=0;orthogonalLoop=1;jettySize=auto;html=1;endArrow=none;endFill=0;" edge="1" parent="1" source="tBe84vyKgzNVQJbpqO7j-3" target="tBe84vyKgzNVQJbpqO7j-1">
          <mxGeometry relative="1" as="geometry" />
        </mxCell>
        <mxCell id="tBe84vyKgzNVQJbpqO7j-3" value="POSSUI" style="rhombus;whiteSpace=wrap;html=1;" vertex="1" parent="1">
          <mxGeometry x="860" y="550" width="80" height="60" as="geometry" />
        </mxCell>
        <mxCell id="tBe84vyKgzNVQJbpqO7j-8" value="1" style="text;html=1;align=center;verticalAlign=middle;resizable=0;points=[];autosize=1;strokeColor=none;fillColor=none;" vertex="1" parent="1">
          <mxGeometry x="896" y="643" width="30" height="30" as="geometry" />
        </mxCell>
        <mxCell id="tBe84vyKgzNVQJbpqO7j-9" value="n" style="text;html=1;align=center;verticalAlign=middle;resizable=0;points=[];autosize=1;strokeColor=none;fillColor=none;" vertex="1" parent="1">
          <mxGeometry x="896" y="487" width="30" height="30" as="geometry" />
        </mxCell>
        <mxCell id="tBe84vyKgzNVQJbpqO7j-13" style="edgeStyle=orthogonalEdgeStyle;rounded=0;orthogonalLoop=1;jettySize=auto;html=1;endArrow=none;endFill=0;" edge="1" parent="1" source="tBe84vyKgzNVQJbpqO7j-10" target="tBe84vyKgzNVQJbpqO7j-11">
          <mxGeometry relative="1" as="geometry" />
        </mxCell>
        <mxCell id="tBe84vyKgzNVQJbpqO7j-12" style="edgeStyle=orthogonalEdgeStyle;rounded=0;orthogonalLoop=1;jettySize=auto;html=1;endArrow=none;endFill=0;" edge="1" parent="1" source="tBe84vyKgzNVQJbpqO7j-11" target="tBe84vyKgzNVQJbpqO7j-2">
          <mxGeometry relative="1" as="geometry" />
        </mxCell>
        <mxCell id="tBe84vyKgzNVQJbpqO7j-11" value="RESPONSAVEL" style="rhombus;whiteSpace=wrap;html=1;" vertex="1" parent="1">
          <mxGeometry x="670" y="440" width="110" height="60" as="geometry" />
        </mxCell>
        <mxCell id="tBe84vyKgzNVQJbpqO7j-14" value="1" style="text;html=1;align=center;verticalAlign=middle;resizable=0;points=[];autosize=1;strokeColor=none;fillColor=none;" vertex="1" parent="1">
          <mxGeometry x="810" y="440" width="30" height="30" as="geometry" />
        </mxCell>
        <mxCell id="tBe84vyKgzNVQJbpqO7j-15" value="1" style="text;html=1;align=center;verticalAlign=middle;resizable=0;points=[];autosize=1;strokeColor=none;fillColor=none;" vertex="1" parent="1">
          <mxGeometry x="606" y="442" width="30" height="30" as="geometry" />
        </mxCell>
        <mxCell id="tBe84vyKgzNVQJbpqO7j-19" style="edgeStyle=orthogonalEdgeStyle;rounded=0;orthogonalLoop=1;jettySize=auto;html=1;endArrow=none;endFill=0;" edge="1" parent="1" source="tBe84vyKgzNVQJbpqO7j-17" target="tBe84vyKgzNVQJbpqO7j-16">
          <mxGeometry relative="1" as="geometry" />
        </mxCell>
        <mxCell id="tBe84vyKgzNVQJbpqO7j-17" value="CREDENCIA" style="rhombus;whiteSpace=wrap;html=1;" vertex="1" parent="1">
          <mxGeometry x="1030" y="663" width="80" height="60" as="geometry" />
        </mxCell>
        <mxCell id="tBe84vyKgzNVQJbpqO7j-20" value="3" style="text;html=1;align=center;verticalAlign=middle;resizable=0;points=[];autosize=1;strokeColor=none;fillColor=none;" vertex="1" parent="1">
          <mxGeometry x="1138" y="668" width="30" height="30" as="geometry" />
        </mxCell>
        <mxCell id="tBe84vyKgzNVQJbpqO7j-21" value="1" style="text;html=1;align=center;verticalAlign=middle;resizable=0;points=[];autosize=1;strokeColor=none;fillColor=none;" vertex="1" parent="1">
          <mxGeometry x="956" y="667" width="30" height="30" as="geometry" />
        </mxCell>
        <mxCell id="tBe84vyKgzNVQJbpqO7j-23" style="edgeStyle=orthogonalEdgeStyle;rounded=0;orthogonalLoop=1;jettySize=auto;html=1;endArrow=none;endFill=0;" edge="1" parent="1" source="tBe84vyKgzNVQJbpqO7j-22">
          <mxGeometry relative="1" as="geometry">
            <mxPoint x="1195" y="740" as="targetPoint" />
            <Array as="points">
              <mxPoint x="1220" y="710" />
              <mxPoint x="1220" y="710" />
            </Array>
          </mxGeometry>
        </mxCell>
        <mxCell id="tBe84vyKgzNVQJbpqO7j-22" value="" style="ellipse;whiteSpace=wrap;html=1;" vertex="1" parent="1">
          <mxGeometry x="1190" y="754" width="10" height="10" as="geometry" />
        </mxCell>
        <mxCell id="tBe84vyKgzNVQJbpqO7j-25" value="CRM_medico" style="text;html=1;align=center;verticalAlign=middle;resizable=0;points=[];autosize=1;strokeColor=none;fillColor=none;" vertex="1" parent="1">
          <mxGeometry x="1214" y="709" width="100" height="30" as="geometry" />
        </mxCell>
        <mxCell id="tBe84vyKgzNVQJbpqO7j-29" style="edgeStyle=orthogonalEdgeStyle;rounded=0;orthogonalLoop=1;jettySize=auto;html=1;endArrow=none;endFill=0;" edge="1" parent="1" source="tBe84vyKgzNVQJbpqO7j-27" target="tBe84vyKgzNVQJbpqO7j-28">
          <mxGeometry relative="1" as="geometry" />
        </mxCell>
        <mxCell id="tBe84vyKgzNVQJbpqO7j-46" style="edgeStyle=orthogonalEdgeStyle;rounded=0;orthogonalLoop=1;jettySize=auto;html=1;endArrow=none;endFill=0;" edge="1" parent="1" source="tBe84vyKgzNVQJbpqO7j-27" target="tBe84vyKgzNVQJbpqO7j-43">
          <mxGeometry relative="1" as="geometry" />
        </mxCell>
        <mxCell id="tBe84vyKgzNVQJbpqO7j-30" style="edgeStyle=orthogonalEdgeStyle;rounded=0;orthogonalLoop=1;jettySize=auto;html=1;endArrow=none;endFill=0;" edge="1" parent="1" source="tBe84vyKgzNVQJbpqO7j-28" target="tBe84vyKgzNVQJbpqO7j-16">
          <mxGeometry relative="1" as="geometry" />
        </mxCell>
        <mxCell id="tBe84vyKgzNVQJbpqO7j-28" value="SERVE" style="rhombus;whiteSpace=wrap;html=1;" vertex="1" parent="1">
          <mxGeometry x="1189" y="560" width="80" height="60" as="geometry" />
        </mxCell>
        <mxCell id="tBe84vyKgzNVQJbpqO7j-31" value="1" style="text;html=1;align=center;verticalAlign=middle;resizable=0;points=[];autosize=1;strokeColor=none;fillColor=none;" vertex="1" parent="1">
          <mxGeometry x="1225" y="648" width="30" height="30" as="geometry" />
        </mxCell>
        <mxCell id="tBe84vyKgzNVQJbpqO7j-33" value="n" style="text;html=1;align=center;verticalAlign=middle;resizable=0;points=[];autosize=1;strokeColor=none;fillColor=none;" vertex="1" parent="1">
          <mxGeometry x="1224" y="508" width="30" height="30" as="geometry" />
        </mxCell>
        <mxCell id="tBe84vyKgzNVQJbpqO7j-39" style="edgeStyle=orthogonalEdgeStyle;rounded=0;orthogonalLoop=1;jettySize=auto;html=1;entryX=0.5;entryY=1;entryDx=0;entryDy=0;endArrow=none;endFill=0;" edge="1" parent="1" target="tBe84vyKgzNVQJbpqO7j-40">
          <mxGeometry relative="1" as="geometry">
            <mxPoint x="515" y="452.97" as="sourcePoint" />
            <Array as="points">
              <mxPoint x="531" y="460.97" />
              <mxPoint x="531" y="460.97" />
            </Array>
          </mxGeometry>
        </mxCell>
        <mxCell id="tBe84vyKgzNVQJbpqO7j-40" value="" style="ellipse;whiteSpace=wrap;html=1;" vertex="1" parent="1">
          <mxGeometry x="510" y="409" width="10" height="10" as="geometry" />
        </mxCell>
        <mxCell id="tBe84vyKgzNVQJbpqO7j-41" value="CRE" style="text;html=1;align=center;verticalAlign=middle;resizable=0;points=[];autosize=1;strokeColor=none;fillColor=none;" vertex="1" parent="1">
          <mxGeometry x="524" y="415" width="50" height="30" as="geometry" />
        </mxCell>
        <mxCell id="tBe84vyKgzNVQJbpqO7j-75" style="edgeStyle=orthogonalEdgeStyle;rounded=0;orthogonalLoop=1;jettySize=auto;html=1;endArrow=none;endFill=0;" edge="1" parent="1">
          <mxGeometry relative="1" as="geometry">
            <mxPoint x="528.9449451183712" y="450" as="sourcePoint" />
            <mxPoint x="528.9449451183712" y="434.43182006618645" as="targetPoint" />
            <Array as="points">
              <mxPoint x="537.63" y="460" />
              <mxPoint x="537.63" y="460" />
            </Array>
          </mxGeometry>
        </mxCell>
        <mxCell id="tBe84vyKgzNVQJbpqO7j-10" value="ENFERMEIRA" style="rounded=0;whiteSpace=wrap;html=1;" vertex="1" parent="1">
          <mxGeometry x="490" y="450" width="120" height="40" as="geometry" />
        </mxCell>
        <mxCell id="tBe84vyKgzNVQJbpqO7j-45" style="edgeStyle=orthogonalEdgeStyle;rounded=0;orthogonalLoop=1;jettySize=auto;html=1;endArrow=none;endFill=0;" edge="1" parent="1" source="tBe84vyKgzNVQJbpqO7j-42" target="tBe84vyKgzNVQJbpqO7j-43">
          <mxGeometry relative="1" as="geometry" />
        </mxCell>
        <mxCell id="tBe84vyKgzNVQJbpqO7j-42" value="PACIENTE" style="rounded=0;whiteSpace=wrap;html=1;" vertex="1" parent="1">
          <mxGeometry x="1482" y="472" width="120" height="40" as="geometry" />
        </mxCell>
        <mxCell id="tBe84vyKgzNVQJbpqO7j-57" style="edgeStyle=orthogonalEdgeStyle;rounded=0;orthogonalLoop=1;jettySize=auto;html=1;entryX=0.5;entryY=0;entryDx=0;entryDy=0;endArrow=none;endFill=0;" edge="1" parent="1" source="tBe84vyKgzNVQJbpqO7j-43" target="tBe84vyKgzNVQJbpqO7j-50">
          <mxGeometry relative="1" as="geometry">
            <Array as="points">
              <mxPoint x="1420" y="510" />
              <mxPoint x="1420" y="510" />
            </Array>
          </mxGeometry>
        </mxCell>
        <mxCell id="tBe84vyKgzNVQJbpqO7j-58" style="edgeStyle=orthogonalEdgeStyle;rounded=0;orthogonalLoop=1;jettySize=auto;html=1;endArrow=none;endFill=0;exitX=0.629;exitY=0.852;exitDx=0;exitDy=0;exitPerimeter=0;" edge="1" parent="1" source="tBe84vyKgzNVQJbpqO7j-43" target="tBe84vyKgzNVQJbpqO7j-49">
          <mxGeometry relative="1" as="geometry">
            <mxPoint x="1400" y="521" as="sourcePoint" />
            <mxPoint x="1400" y="537" as="targetPoint" />
            <Array as="points" />
          </mxGeometry>
        </mxCell>
        <mxCell id="tBe84vyKgzNVQJbpqO7j-43" value="ATENDE" style="rhombus;whiteSpace=wrap;html=1;" vertex="1" parent="1">
          <mxGeometry x="1350" y="462" width="80" height="60" as="geometry" />
        </mxCell>
        <mxCell id="tBe84vyKgzNVQJbpqO7j-47" value="(1,n)" style="text;html=1;align=center;verticalAlign=middle;resizable=0;points=[];autosize=1;strokeColor=none;fillColor=none;" vertex="1" parent="1">
          <mxGeometry x="1277" y="468" width="50" height="30" as="geometry" />
        </mxCell>
        <mxCell id="tBe84vyKgzNVQJbpqO7j-48" value="n" style="text;html=1;align=center;verticalAlign=middle;resizable=0;points=[];autosize=1;strokeColor=none;fillColor=none;" vertex="1" parent="1">
          <mxGeometry x="1455" y="468" width="30" height="30" as="geometry" />
        </mxCell>
        <mxCell id="tBe84vyKgzNVQJbpqO7j-49" value="" style="ellipse;whiteSpace=wrap;html=1;" vertex="1" parent="1">
          <mxGeometry x="1395" y="542" width="10" height="10" as="geometry" />
        </mxCell>
        <mxCell id="tBe84vyKgzNVQJbpqO7j-50" value="" style="ellipse;whiteSpace=wrap;html=1;" vertex="1" parent="1">
          <mxGeometry x="1410" y="526" width="10" height="10" as="geometry" />
        </mxCell>
        <mxCell id="tBe84vyKgzNVQJbpqO7j-59" value="Data" style="text;html=1;align=center;verticalAlign=middle;resizable=0;points=[];autosize=1;strokeColor=none;fillColor=none;" vertex="1" parent="1">
          <mxGeometry x="1409" y="516" width="50" height="30" as="geometry" />
        </mxCell>
        <mxCell id="tBe84vyKgzNVQJbpqO7j-60" value="Hora" style="text;html=1;align=center;verticalAlign=middle;resizable=0;points=[];autosize=1;strokeColor=none;fillColor=none;" vertex="1" parent="1">
          <mxGeometry x="1394" y="532" width="50" height="30" as="geometry" />
        </mxCell>
        <mxCell id="tBe84vyKgzNVQJbpqO7j-61" style="edgeStyle=orthogonalEdgeStyle;rounded=0;orthogonalLoop=1;jettySize=auto;html=1;endArrow=none;endFill=0;" edge="1" parent="1" source="tBe84vyKgzNVQJbpqO7j-62">
          <mxGeometry relative="1" as="geometry">
            <mxPoint x="857" y="740" as="targetPoint" />
            <Array as="points">
              <mxPoint x="882" y="710" />
              <mxPoint x="882" y="710" />
            </Array>
          </mxGeometry>
        </mxCell>
        <mxCell id="tBe84vyKgzNVQJbpqO7j-62" value="" style="ellipse;whiteSpace=wrap;html=1;" vertex="1" parent="1">
          <mxGeometry x="852" y="730" width="10" height="10" as="geometry" />
        </mxCell>
        <mxCell id="tBe84vyKgzNVQJbpqO7j-63" value="CNPJ" style="text;html=1;align=center;verticalAlign=middle;resizable=0;points=[];autosize=1;strokeColor=none;fillColor=none;" vertex="1" parent="1">
          <mxGeometry x="854" y="720" width="50" height="30" as="geometry" />
        </mxCell>
        <mxCell id="tBe84vyKgzNVQJbpqO7j-1" value="HOSPITAL" style="rounded=0;whiteSpace=wrap;html=1;" vertex="1" parent="1">
          <mxGeometry x="840" y="673" width="120" height="40" as="geometry" />
        </mxCell>
        <mxCell id="tBe84vyKgzNVQJbpqO7j-64" style="edgeStyle=orthogonalEdgeStyle;rounded=0;orthogonalLoop=1;jettySize=auto;html=1;entryX=0.5;entryY=1;entryDx=0;entryDy=0;endArrow=none;endFill=0;" edge="1" parent="1" target="tBe84vyKgzNVQJbpqO7j-65">
          <mxGeometry relative="1" as="geometry">
            <mxPoint x="867" y="455" as="sourcePoint" />
            <Array as="points">
              <mxPoint x="883" y="463" />
              <mxPoint x="883" y="463" />
            </Array>
          </mxGeometry>
        </mxCell>
        <mxCell id="tBe84vyKgzNVQJbpqO7j-65" value="" style="ellipse;whiteSpace=wrap;html=1;" vertex="1" parent="1">
          <mxGeometry x="862" y="425" width="10" height="10" as="geometry" />
        </mxCell>
        <mxCell id="tBe84vyKgzNVQJbpqO7j-66" value="Identificador" style="text;html=1;align=center;verticalAlign=middle;resizable=0;points=[];autosize=1;strokeColor=none;fillColor=none;" vertex="1" parent="1">
          <mxGeometry x="861" y="414" width="90" height="30" as="geometry" />
        </mxCell>
        <mxCell id="tBe84vyKgzNVQJbpqO7j-2" value="ALA" style="rounded=0;whiteSpace=wrap;html=1;" vertex="1" parent="1">
          <mxGeometry x="840" y="450" width="120" height="40" as="geometry" />
        </mxCell>
        <mxCell id="tBe84vyKgzNVQJbpqO7j-67" style="edgeStyle=orthogonalEdgeStyle;rounded=0;orthogonalLoop=1;jettySize=auto;html=1;endArrow=none;endFill=0;" edge="1" parent="1" source="tBe84vyKgzNVQJbpqO7j-68">
          <mxGeometry relative="1" as="geometry">
            <mxPoint x="1207" y="724" as="targetPoint" />
            <Array as="points">
              <mxPoint x="1232" y="694" />
              <mxPoint x="1232" y="694" />
            </Array>
          </mxGeometry>
        </mxCell>
        <mxCell id="tBe84vyKgzNVQJbpqO7j-68" value="" style="ellipse;whiteSpace=wrap;html=1;" vertex="1" parent="1">
          <mxGeometry x="1202" y="737" width="10" height="10" as="geometry" />
        </mxCell>
        <mxCell id="tBe84vyKgzNVQJbpqO7j-69" style="edgeStyle=orthogonalEdgeStyle;rounded=0;orthogonalLoop=1;jettySize=auto;html=1;endArrow=none;endFill=0;" edge="1" parent="1" source="tBe84vyKgzNVQJbpqO7j-70">
          <mxGeometry relative="1" as="geometry">
            <mxPoint x="1221" y="708" as="targetPoint" />
            <Array as="points">
              <mxPoint x="1246" y="678" />
              <mxPoint x="1246" y="678" />
            </Array>
          </mxGeometry>
        </mxCell>
        <mxCell id="tBe84vyKgzNVQJbpqO7j-70" value="" style="ellipse;whiteSpace=wrap;html=1;" vertex="1" parent="1">
          <mxGeometry x="1215" y="720" width="10" height="10" as="geometry" />
        </mxCell>
        <mxCell id="tBe84vyKgzNVQJbpqO7j-71" value="Nome" style="text;html=1;align=center;verticalAlign=middle;resizable=0;points=[];autosize=1;strokeColor=none;fillColor=none;" vertex="1" parent="1">
          <mxGeometry x="1188" y="744" width="60" height="30" as="geometry" />
        </mxCell>
        <mxCell id="tBe84vyKgzNVQJbpqO7j-72" value="Telefone" style="text;html=1;align=center;verticalAlign=middle;resizable=0;points=[];autosize=1;strokeColor=none;fillColor=none;" vertex="1" parent="1">
          <mxGeometry x="1202" y="727" width="70" height="30" as="geometry" />
        </mxCell>
        <mxCell id="tBe84vyKgzNVQJbpqO7j-16" value="PLANO DE SAÃDE" style="rounded=0;whiteSpace=wrap;html=1;" vertex="1" parent="1">
          <mxGeometry x="1169" y="673" width="120" height="40" as="geometry" />
        </mxCell>
        <mxCell id="tBe84vyKgzNVQJbpqO7j-74" value="" style="ellipse;whiteSpace=wrap;html=1;" vertex="1" parent="1">
          <mxGeometry x="524" y="425" width="10" height="10" as="geometry" />
        </mxCell>
        <mxCell id="tBe84vyKgzNVQJbpqO7j-76" value="Nome" style="text;html=1;align=center;verticalAlign=middle;resizable=0;points=[];autosize=1;strokeColor=none;fillColor=none;" vertex="1" parent="1">
          <mxGeometry x="507" y="398" width="60" height="30" as="geometry" />
        </mxCell>
        <mxCell id="tBe84vyKgzNVQJbpqO7j-77" style="edgeStyle=orthogonalEdgeStyle;rounded=0;orthogonalLoop=1;jettySize=auto;html=1;entryX=0.5;entryY=1;entryDx=0;entryDy=0;endArrow=none;endFill=0;" edge="1" parent="1" target="tBe84vyKgzNVQJbpqO7j-78">
          <mxGeometry relative="1" as="geometry">
            <mxPoint x="1189" y="468.97" as="sourcePoint" />
            <Array as="points">
              <mxPoint x="1205" y="476.97" />
              <mxPoint x="1205" y="476.97" />
            </Array>
          </mxGeometry>
        </mxCell>
        <mxCell id="tBe84vyKgzNVQJbpqO7j-78" value="" style="ellipse;whiteSpace=wrap;html=1;" vertex="1" parent="1">
          <mxGeometry x="1184" y="415" width="10" height="10" as="geometry" />
        </mxCell>
        <mxCell id="tBe84vyKgzNVQJbpqO7j-79" value="CRM" style="text;html=1;align=center;verticalAlign=middle;resizable=0;points=[];autosize=1;strokeColor=none;fillColor=none;" vertex="1" parent="1">
          <mxGeometry x="1213" y="440" width="50" height="30" as="geometry" />
        </mxCell>
        <mxCell id="tBe84vyKgzNVQJbpqO7j-81" value="" style="ellipse;whiteSpace=wrap;html=1;" vertex="1" parent="1">
          <mxGeometry x="1198" y="433" width="10" height="10" as="geometry" />
        </mxCell>
        <mxCell id="tBe84vyKgzNVQJbpqO7j-82" value="Nome" style="text;html=1;align=center;verticalAlign=middle;resizable=0;points=[];autosize=1;strokeColor=none;fillColor=none;" vertex="1" parent="1">
          <mxGeometry x="1181" y="405" width="60" height="30" as="geometry" />
        </mxCell>
        <mxCell id="tBe84vyKgzNVQJbpqO7j-84" style="edgeStyle=orthogonalEdgeStyle;rounded=0;orthogonalLoop=1;jettySize=auto;html=1;entryX=0.5;entryY=1;entryDx=0;entryDy=0;endArrow=none;endFill=0;" edge="1" parent="1" source="tBe84vyKgzNVQJbpqO7j-27" target="tBe84vyKgzNVQJbpqO7j-81">
          <mxGeometry relative="1" as="geometry">
            <Array as="points">
              <mxPoint x="1220" y="480" />
              <mxPoint x="1220" y="480" />
            </Array>
          </mxGeometry>
        </mxCell>
        <mxCell id="tBe84vyKgzNVQJbpqO7j-85" style="edgeStyle=orthogonalEdgeStyle;rounded=0;orthogonalLoop=1;jettySize=auto;html=1;entryX=0.5;entryY=1;entryDx=0;entryDy=0;endArrow=none;endFill=0;" edge="1" parent="1" source="tBe84vyKgzNVQJbpqO7j-27" target="tBe84vyKgzNVQJbpqO7j-83">
          <mxGeometry relative="1" as="geometry">
            <Array as="points">
              <mxPoint x="1220" y="480" />
              <mxPoint x="1220" y="480" />
            </Array>
          </mxGeometry>
        </mxCell>
        <mxCell id="tBe84vyKgzNVQJbpqO7j-27" value="MÃDICO" style="rounded=0;whiteSpace=wrap;html=1;" vertex="1" parent="1">
          <mxGeometry x="1169" y="472" width="120" height="40" as="geometry" />
        </mxCell>
        <mxCell id="tBe84vyKgzNVQJbpqO7j-83" value="" style="ellipse;whiteSpace=wrap;html=1;" vertex="1" parent="1">
          <mxGeometry x="1213" y="450" width="10" height="10" as="geometry" />
        </mxCell>
        <mxCell id="tBe84vyKgzNVQJbpqO7j-86" value="Especialidade" style="text;html=1;align=center;verticalAlign=middle;resizable=0;points=[];autosize=1;strokeColor=none;fillColor=none;" vertex="1" parent="1">
          <mxGeometry x="1197" y="422" width="100" height="30" as="geometry" />
        </mxCell>
      </root>
    </mxGraphModel>
  </diagram>
</mxfile>
